<svg xmlns="http://www.w3.org/2000/svg" viewBox="105 281 1817 267" role="img" aria-label="LeaderLeads logo">
  <title>LeaderLeads</title>
  <g id="mark">
    <path fill="#045ECE" d="M111,353 L201.5,287 L292,353 L292,394 L201.5,328 L111,394 Z"/>
    <path fill="#001334" d="M111,427 L201.5,361 L292,427 L292,468 L201.5,402 L111,468 Z"/>
    <path fill="#57A322" d="M111,501 L201.5,435 L292,501 L292,542 L201.5,476 L111,542 Z"/>
  </g>
  <g id="wordmark">
    <path fill="#001334" d="M388 507V338H427.2V475.1H511.8V507ZM581.6 508.8Q559.3 508.8 542.6 500.2Q526 491.5 516.8 476.4Q507.6 461.3 507.6 442Q507.6 422.6 516.6 407.5Q525.6 392.4 541.3 383.8Q557 375.3 576.8 375.3Q595.9 375.3 611.2 383.4Q626.5 391.5 635.4 406.5Q644.4 421.6 644.4 442.6Q644.4 444.8 644.2 447.5Q644 450.3 643.8 452.6H538.2V430.7H623.8L609.3 437.2Q609.4 427.2 605.3 419.6Q601.1 412.1 593.9 407.8Q586.7 403.6 577 403.6Q567.3 403.6 560 407.8Q552.6 412.1 548.6 419.7Q544.5 427.3 544.5 437.7V443.6Q544.5 454.2 549.2 462.2Q553.9 470.2 562.5 474.5Q571.1 478.9 582.7 478.9Q593 478.9 600.8 475.7Q608.6 472.6 615.3 466.1L635.3 487.9Q626.3 498.1 612.8 503.5Q599.3 508.8 581.6 508.8ZM735.1 507V481.7L732.8 476V430.7Q732.8 418.6 725.4 411.9Q718.1 405.2 702.7 405.2Q692.5 405.2 682.5 408.4Q672.4 411.6 665.3 417.2L651.9 391Q662.6 383.3 677.5 379.3Q692.4 375.3 707.9 375.3Q737.7 375.3 754.1 389.3Q770.5 403.2 770.5 432.8V507ZM695.6 508.8Q680.5 508.8 669.6 503.7Q658.7 498.6 653 489.7Q647.2 480.7 647.2 469.5Q647.2 458.1 652.8 449.3Q658.5 440.6 670.8 435.7Q683.1 430.7 702.9 430.7H737.2V452.7H707.1Q693.7 452.7 688.8 457Q683.8 461.3 683.8 468Q683.8 475.1 689.5 479.3Q695.1 483.6 704.9 483.6Q714.4 483.6 721.9 479.2Q729.5 474.8 732.8 465.9L738.5 483.4Q734.5 495.8 723.6 502.3Q712.8 508.8 695.6 508.8ZM846.2 508.8Q828 508.8 813.3 500.6Q798.5 492.3 790 477.4Q781.4 462.4 781.4 442Q781.4 421.6 790 406.7Q798.5 391.7 813.3 383.5Q828 375.3 846.2 375.3Q862.7 375.3 874.9 382.5Q887.2 389.7 894.1 404.5Q900.9 419.2 900.9 442Q900.9 464.8 894.3 479.6Q887.8 494.5 875.6 501.7Q863.3 508.8 846.2 508.8ZM852.6 478Q862 478 869.5 473.7Q876.9 469.4 881.4 461.3Q885.8 453.1 885.8 442Q885.8 430.7 881.4 422.7Q876.9 414.7 869.5 410.4Q862 406.1 852.6 406.1Q843.3 406.1 835.8 410.4Q828.4 414.7 823.9 422.7Q819.5 430.7 819.5 442Q819.5 453.1 823.9 461.3Q828.4 469.4 835.8 473.7Q843.3 478 852.6 478ZM886.9 507V480.4L887.5 441.9L885.1 403.3V327.9H922.8V507ZM1007.9 508.8Q985.7 508.8 969 500.2Q952.3 491.5 943.2 476.4Q934 461.3 934 442Q934 422.6 943 407.5Q951.9 392.4 967.7 383.8Q983.4 375.3 1003.2 375.3Q1022.3 375.3 1037.6 383.4Q1052.9 391.5 1061.8 406.5Q1070.7 421.6 1070.7 442.6Q1070.7 444.8 1070.6 447.5Q1070.4 450.3 1070.1 452.6H964.6V430.7H1050.2L1035.7 437.2Q1035.8 427.2 1031.6 419.6Q1027.5 412.1 1020.3 407.8Q1013 403.6 1003.3 403.6Q993.7 403.6 986.3 407.8Q979 412.1 974.9 419.7Q970.9 427.3 970.9 437.7V443.6Q970.9 454.2 975.6 462.2Q980.3 470.2 988.9 474.5Q997.5 478.9 1009 478.9Q1019.4 478.9 1027.2 475.7Q1035 472.6 1041.7 466.1L1061.7 487.9Q1052.6 498.1 1039.2 503.5Q1025.7 508.8 1007.9 508.8ZM1082 507V377.1H1117.8V413.9L1112.9 403.3Q1118.6 389.4 1131.4 382.4Q1144.2 375.3 1162.6 375.3V410Q1160.2 409.7 1158.2 409.5Q1156.2 409.4 1154.2 409.4Q1138.5 409.4 1129.1 418.2Q1119.6 427.1 1119.6 445.7V507Z"/>
    <path fill="#57A322" d="M1194.6 507V338H1233.8V475.1H1318.4V507ZM1388.2 508.8Q1365.9 508.8 1349.3 500.2Q1332.6 491.5 1323.4 476.4Q1314.2 461.3 1314.2 442Q1314.2 422.6 1323.2 407.5Q1332.2 392.4 1347.9 383.8Q1363.6 375.3 1383.4 375.3Q1402.5 375.3 1417.8 383.4Q1433.1 391.5 1442.1 406.5Q1451 421.6 1451 442.6Q1451 444.8 1450.8 447.5Q1450.6 450.3 1450.4 452.6H1344.8V430.7H1430.5L1415.9 437.2Q1416.1 427.2 1411.9 419.6Q1407.7 412.1 1400.5 407.8Q1393.3 403.6 1383.6 403.6Q1373.9 403.6 1366.6 407.8Q1359.2 412.1 1355.2 419.7Q1351.1 427.3 1351.1 437.7V443.6Q1351.1 454.2 1355.8 462.2Q1360.5 470.2 1369.1 474.5Q1377.7 478.9 1389.3 478.9Q1399.6 478.9 1407.4 475.7Q1415.2 472.6 1421.9 466.1L1442 487.9Q1432.9 498.1 1419.4 503.5Q1405.9 508.8 1388.2 508.8ZM1541.7 507V481.7L1539.4 476V430.7Q1539.4 418.6 1532.1 411.9Q1524.7 405.2 1509.4 405.2Q1499.1 405.2 1489.1 408.4Q1479 411.6 1471.9 417.2L1458.5 391Q1469.2 383.3 1484.1 379.3Q1499.1 375.3 1514.5 375.3Q1544.3 375.3 1560.7 389.3Q1577.1 403.2 1577.1 432.8V507ZM1502.2 508.8Q1487.1 508.8 1476.2 503.7Q1465.3 498.6 1459.6 489.7Q1453.8 480.7 1453.8 469.5Q1453.8 458.1 1459.4 449.3Q1465.1 440.6 1477.4 435.7Q1489.7 430.7 1509.5 430.7H1543.9V452.7H1513.7Q1500.3 452.7 1495.4 457Q1490.5 461.3 1490.5 468Q1490.5 475.1 1496.1 479.3Q1501.7 483.6 1511.5 483.6Q1521 483.6 1528.5 479.2Q1536.1 474.8 1539.4 465.9L1545.1 483.4Q1541.1 495.8 1530.2 502.3Q1519.4 508.8 1502.2 508.8ZM1652.8 508.8Q1634.6 508.8 1619.9 500.6Q1605.1 492.3 1596.6 477.4Q1588 462.4 1588 442Q1588 421.6 1596.6 406.7Q1605.1 391.7 1619.9 383.5Q1634.6 375.3 1652.8 375.3Q1669.3 375.3 1681.6 382.5Q1693.8 389.7 1700.7 404.5Q1707.5 419.2 1707.5 442Q1707.5 464.8 1701 479.6Q1694.4 494.5 1682.2 501.7Q1670 508.8 1652.8 508.8ZM1659.3 478Q1668.6 478 1676.1 473.7Q1683.5 469.4 1688 461.3Q1692.4 453.1 1692.4 442Q1692.4 430.7 1688 422.7Q1683.5 414.7 1676.1 410.4Q1668.6 406.1 1659.3 406.1Q1649.9 406.1 1642.4 410.4Q1635 414.7 1630.5 422.7Q1626.1 430.7 1626.1 442Q1626.1 453.1 1630.5 461.3Q1635 469.4 1642.4 473.7Q1649.9 478 1659.3 478ZM1693.5 507V480.4L1694.1 441.9L1691.7 403.3V327.9H1729.4V507ZM1793.7 508.8Q1777.3 508.8 1762 504.8Q1746.6 500.9 1737.5 494.9L1750.1 468Q1759 473.5 1771.2 477Q1783.4 480.4 1795.4 480.4Q1808.3 480.4 1813.8 477.2Q1819.3 474.1 1819.3 468.6Q1819.3 464.1 1815 461.7Q1810.8 459.4 1803.8 458.2Q1796.8 456.9 1788.4 455.8Q1780.1 454.6 1771.6 452.5Q1763.2 450.4 1756.2 446.3Q1749.2 442.3 1745 435.3Q1740.7 428.3 1740.7 417.1Q1740.7 404.8 1747.9 395.4Q1755.1 386 1768.5 380.6Q1781.9 375.3 1800.8 375.3Q1814.2 375.3 1827.9 378.2Q1841.6 381 1850.8 386.4L1838.2 413.4Q1828.8 407.8 1819.3 405.8Q1809.8 403.7 1800.9 403.7Q1788.2 403.7 1782.4 407.1Q1776.6 410.5 1776.6 415.7Q1776.6 420.5 1780.9 422.9Q1785.1 425.4 1792.1 426.8Q1799.1 428.2 1807.5 429.3Q1815.9 430.5 1824.2 432.6Q1832.6 434.8 1839.6 438.8Q1846.6 442.8 1850.8 449.7Q1855.1 456.6 1855.1 467.7Q1855.1 479.6 1847.9 489Q1840.7 498.3 1827 503.5Q1813.3 508.8 1793.7 508.8Z"/>
    <path fill="#001334" d="M1889.7 371V350H1894.3L1904 364.5H1901.5L1910.9 350H1915.6L1915.6 371H1910.3L1910.3 357.6H1911.2L1903.9 368.8H1901.4L1893.8 357.6H1895V371ZM1874.2 371V354.3H1867.1V350H1887.1V354.3H1879.9V371Z"/>
  </g>
</svg>