<svg viewBox="0 0 400 240" xmlns="http://www.w3.org/2000/svg" fill="none" stroke="#1a1a1a" stroke-linecap="round" stroke-linejoin="round">
  <rect width="400" height="240" fill="#f9f9f9" stroke="none"/>
  <!-- Person -->
  <circle cx="110" cy="80" r="13" fill="white" stroke="#1a1a1a" stroke-width="1.5"/>
  <line x1="110" y1="93" x2="110" y2="132" stroke="#1a1a1a" stroke-width="1.5"/>
  <line x1="110" y1="108" x2="93" y2="125" stroke="#1a1a1a" stroke-width="1.5"/>
  <line x1="110" y1="108" x2="127" y2="122" stroke="#1a1a1a" stroke-width="1.5"/>
  <line x1="110" y1="132" x2="100" y2="155" stroke="#1a1a1a" stroke-width="1.5"/>
  <line x1="110" y1="132" x2="120" y2="155" stroke="#1a1a1a" stroke-width="1.5"/>
  <!-- Checklist clipboard -->
  <rect x="200" y="30" width="130" height="175" rx="4" fill="white" stroke="#1a1a1a" stroke-width="1.5"/>
  <rect x="222" y="24" width="44" height="16" rx="3" fill="white" stroke="#1a1a1a" stroke-width="1.5"/>
  <!-- Checklist items -->
  <rect x="215" y="55" width="10" height="10" rx="1" fill="none" stroke="#1a1a1a" stroke-width="1.2"/>
  <polyline points="216,60 218,63 224,56" stroke="#1a1a1a" stroke-width="1.2" fill="none"/>
  <line x1="232" y1="60" x2="320" y2="60" stroke="#aaa" stroke-width="1"/>
  <rect x="215" y="76" width="10" height="10" rx="1" fill="none" stroke="#1a1a1a" stroke-width="1.2"/>
  <polyline points="216,81 218,84 224,77" stroke="#1a1a1a" stroke-width="1.2" fill="none"/>
  <line x1="232" y1="81" x2="320" y2="81" stroke="#aaa" stroke-width="1"/>
  <rect x="215" y="97" width="10" height="10" rx="1" fill="none" stroke="#1a1a1a" stroke-width="1.2"/>
  <polyline points="216,102 218,105 224,98" stroke="#1a1a1a" stroke-width="1.2" fill="none"/>
  <line x1="232" y1="102" x2="320" y2="102" stroke="#aaa" stroke-width="1"/>
  <rect x="215" y="118" width="10" height="10" rx="1" fill="none" stroke="#1a1a1a" stroke-width="1.2"/>
  <line x1="232" y1="123" x2="300" y2="123" stroke="#aaa" stroke-width="1"/>
  <rect x="215" y="139" width="10" height="10" rx="1" fill="none" stroke="#1a1a1a" stroke-width="1.2"/>
  <line x1="232" y1="144" x2="308" y2="144" stroke="#aaa" stroke-width="1"/>
  <rect x="215" y="160" width="10" height="10" rx="1" fill="none" stroke="#1a1a1a" stroke-width="1.2"/>
  <line x1="232" y1="165" x2="315" y2="165" stroke="#aaa" stroke-width="1"/>
  <rect x="215" y="181" width="10" height="10" rx="1" fill="none" stroke="#1a1a1a" stroke-width="1.2"/>
  <line x1="232" y1="186" x2="305" y2="186" stroke="#aaa" stroke-width="1"/>
  <!-- Arrow from person to checklist -->
  <line x1="127" y1="108" x2="192" y2="95" stroke="#1a1a1a" stroke-width="1" stroke-dasharray="4 3"/>
  <polyline points="189,91 192,95 189,99" stroke="#1a1a1a" stroke-width="1" fill="none"/>
  <text x="110" y="30" font-family="sans-serif" font-size="11" fill="#888" stroke="none" text-anchor="middle">At the event</text>
</svg>
