<svg viewBox="0 0 400 240" xmlns="http://www.w3.org/2000/svg" fill="none" stroke="#1a1a1a" stroke-linecap="round" stroke-linejoin="round">
  <rect width="400" height="240" fill="#f9f9f9" stroke="none"/>
  <!-- Phone on left -->
  <rect x="40" y="70" width="70" height="110" rx="8" fill="white" stroke="#1a1a1a" stroke-width="2"/>
  <rect x="48" y="82" width="54" height="82" rx="3" fill="#f5f5f5" stroke="#1a1a1a" stroke-width="1"/>
  <circle cx="75" cy="172" r="5" fill="none" stroke="#1a1a1a" stroke-width="1.5"/>
  <!-- Profile card on phone screen -->
  <circle cx="75" cy="103" r="14" fill="white" stroke="#1a1a1a" stroke-width="1.5"/>
  <!-- face features -->
  <circle cx="71" cy="100" r="2" fill="#1a1a1a" stroke="none"/>
  <circle cx="79" cy="100" r="2" fill="#1a1a1a" stroke="none"/>
  <path d="M70 107 C73 110 77 110 80 107" stroke="#1a1a1a" stroke-width="1.2" fill="none"/>
  <line x1="55" y1="124" x2="95" y2="124" stroke="#bbb" stroke-width="1"/>
  <line x1="60" y1="130" x2="90" y2="130" stroke="#bbb" stroke-width="1"/>
  <line x1="58" y1="136" x2="92" y2="136" stroke="#bbb" stroke-width="1"/>
  <!-- Arrow with data flying -->
  <line x1="115" y1="125" x2="165" y2="125" stroke="#1a1a1a" stroke-width="2"/>
  <polyline points="158,119 165,125 158,131" stroke="#1a1a1a" stroke-width="2" fill="none"/>
  <!-- Data dots above arrow -->
  <circle cx="128" cy="115" r="3" fill="#1a1a1a" stroke="none"/>
  <circle cx="140" cy="110" r="3" fill="#1a1a1a" stroke="none"/>
  <circle cx="152" cy="108" r="3" fill="#1a1a1a" stroke="none"/>
  <!-- CRM database on right -->
  <!-- Database cylinder -->
  <ellipse cx="280" cy="88" rx="55" ry="16" fill="white" stroke="#1a1a1a" stroke-width="1.5"/>
  <rect x="225" y="88" width="110" height="60" fill="white" stroke="#1a1a1a" stroke-width="1.5"/>
  <ellipse cx="280" cy="148" rx="55" ry="16" fill="white" stroke="#1a1a1a" stroke-width="1.5"/>
  <!-- Data rows inside -->
  <line x1="235" y1="105" x2="325" y2="105" stroke="#ddd" stroke-width="1"/>
  <line x1="235" y1="118" x2="325" y2="118" stroke="#ddd" stroke-width="1"/>
  <line x1="235" y1="131" x2="325" y2="131" stroke="#ddd" stroke-width="1"/>
  <!-- Row data lines -->
  <line x1="240" y1="111" x2="285" y2="111" stroke="#aaa" stroke-width="1"/>
  <line x1="240" y1="124" x2="280" y2="124" stroke="#aaa" stroke-width="1"/>
  <line x1="240" y1="137" x2="290" y2="137" stroke="#aaa" stroke-width="1"/>
  <!-- CRM label -->
  <text x="280" y="90" font-family="sans-serif" font-size="12" font-weight="bold" fill="#333" stroke="none" text-anchor="middle">CRM</text>
  <text x="200" y="218" font-family="sans-serif" font-size="11" fill="#555" stroke="none" text-anchor="middle">Lead captured → CRM automatically</text>
</svg>
